<svg xmlns="http://www.w3.org/2000/svg" viewBox="0 0 1852.18 439"><defs><style>.cls-1{fill:#853963;}</style></defs><title>Asset 1</title><g id="Layer_2" data-name="Layer 2"><g id="Banner"><path class="cls-1" d="M439,219.5A217.84,217.84,0,0,0,393.85,86.11,29,29,0,0,0,355.23,47,219.62,219.62,0,0,0,84.5,46.38,29,29,0,0,0,46.38,84.5a219.63,219.63,0,0,0-1.54,268A29,29,0,0,0,83,391.4a219.59,219.59,0,0,0,270.33,2.13,29,29,0,0,0,38.38-37.87A217.83,217.83,0,0,0,439,219.5ZM98.14,375.21a29,29,0,0,0-36.8-37.55,197.09,197.09,0,0,1,1-237.68A29,29,0,0,0,100,62.38a197.07,197.07,0,0,1,240.6,1.2,29,29,0,0,0,36.47,37,197.07,197.07,0,0,1-1.26,239.55A29,29,0,0,0,338,377.44a197.1,197.1,0,0,1-239.81-2.23Z"/><path id="V" class="cls-1" d="M288.24,103,217.85,301.86,147.46,103H113.62L201.9,344.21a11.43,11.43,0,0,0,1.42,2.72,17.36,17.36,0,0,0,13.49,7.25h.6a18.48,18.48,0,0,0,17.94-13.46c.13-.45.27-.9.43-1.34L321.26,103Z"/><path class="cls-1" d="M694.62,354.42H681.3L656,292.7H517.91l-24,61.72H480.61l92.8-257.08q4-11.09,12-11.1t12,11.1ZM652,280.27,584.51,104.89,522.79,280.27Z"/><path class="cls-1" d="M902.16,354.42H776.07q-3.56,0-6.44-3.55a12.92,12.92,0,0,1-2.89-8.44V86.24h15.1V343.32H902.16Z"/><path class="cls-1" d="M1111.67,354.2,982,353.75l-6.22-8.44-.89-246.86a17.28,17.28,0,0,0,1.78-6.66q3.55-5.33,7.1-5.33h127.87v12H990.46v103h115v12h-115V343.1l121.21.44Z"/><path class="cls-1" d="M1389.59,346.65l-2.22,7.55q-2.23,2.22-10.66,2.22L1204.44,110V354.2h-13.76V90.9q0-.88,4.44-6.66,13.32,0,15.54,8.44l164.72,238.87V86.46h14.21Z"/><path class="cls-1" d="M1623.55,354.42q-47.52,0-73.93-6.22t-54.83-31.08q-44.4-39.07-44.4-96.35,0-53.28,40-93.68t92.8-40.4l40.4-.44v11.1q-73.26,0-116.77,33.3t-43.51,90.58q0,48.85,39.52,85t92.35,36.19l28.42.89Z"/><path class="cls-1" d="M1852.18,354.2l-129.65-.44-6.22-8.44-.89-246.86a17.28,17.28,0,0,0,1.78-6.66q3.55-5.33,7.1-5.33h127.87v12H1731v103h115v12H1731V343.1l121.21.44Z"/></g></g></svg>